REM MD5 ee4ec397fa88e29c596dda48123caace
FILE "Italian Job, The (Europe).bin" BINARY
  TRACK 01 MODE2/2352
    INDEX 01 00:00:00
  TRACK 02 AUDIO
    INDEX 00 63:34:72
    INDEX 01 63:36:72
  TRACK 03 AUDIO
    INDEX 00 64:24:74
    INDEX 01 64:26:74
REM LEADOUT 67:28:31
